<svg width="135" height="36" viewBox="0 0 135 36" fill="none" xmlns="http://www.w3.org/2000/svg">
<path d="M41.2 28L42.592 11.824H46.648L48.904 17.68C49.288 18.656 49.616 19.552 49.888 20.368C50.16 21.184 50.336 21.76 50.416 22.096L50.536 22.576C50.792 21.52 51.352 19.888 52.216 17.68L54.496 11.824H58.552L60.232 28H56.536L55.936 21.736L55.624 17.008C55.208 18.208 54.632 19.784 53.896 21.736L51.616 27.832H49.432L47.176 21.736C46.808 20.744 46.496 19.856 46.24 19.072C45.984 18.288 45.816 17.744 45.736 17.44L45.616 17.008C45.616 18.144 45.544 19.72 45.4 21.736L44.896 28H41.2ZM66.0059 27.808L61.3019 15.832H65.1179L66.4379 19.624C66.7739 20.6 67.0459 21.44 67.2539 22.144C67.4779 22.848 67.6139 23.312 67.6619 23.536L67.7339 23.872C67.9099 23.232 68.3419 21.816 69.0299 19.624L70.2299 15.832H73.8299L69.4379 27.64C68.1739 31.048 66.2459 32.752 63.6539 32.752C63.1579 32.752 62.7099 32.712 62.3099 32.632V29.848C62.5659 29.912 62.8379 29.944 63.1259 29.944C64.4539 29.944 65.4139 29.232 66.0059 27.808ZM82.8353 16.192V19.192C81.9873 18.696 80.9953 18.448 79.8593 18.448C79.4433 18.448 79.1233 18.536 78.8993 18.712C78.6753 18.872 78.5633 19.08 78.5633 19.336C78.5633 19.48 78.6033 19.616 78.6833 19.744C78.7633 19.872 78.8913 19.992 79.0673 20.104C79.2593 20.216 79.4353 20.32 79.5953 20.416C79.7713 20.496 80.0033 20.6 80.2913 20.728C80.5953 20.856 80.8353 20.968 81.0113 21.064C81.7473 21.448 82.3393 21.896 82.7873 22.408C83.2353 22.904 83.4593 23.544 83.4593 24.328C83.4593 25.528 83.0273 26.456 82.1633 27.112C81.2993 27.768 80.1553 28.096 78.7313 28.096C77.2593 28.096 76.0273 27.848 75.0353 27.352V24.232C76.1393 25 77.3073 25.384 78.5393 25.384C79.4193 25.384 79.8593 25.104 79.8593 24.544C79.8593 24.4 79.8193 24.264 79.7393 24.136C79.6593 24.008 79.5233 23.888 79.3313 23.776C79.1393 23.664 78.9633 23.576 78.8033 23.512C78.6433 23.432 78.4113 23.328 78.1073 23.2C77.8033 23.072 77.5713 22.968 77.4113 22.888C75.7953 22.12 74.9873 20.968 74.9873 19.432C74.9873 18.248 75.4353 17.328 76.3313 16.672C77.2433 16.016 78.3713 15.688 79.7153 15.688C80.9633 15.688 82.0033 15.856 82.8353 16.192ZM89.4244 18.4V23.992C89.4244 24.424 89.5444 24.752 89.7844 24.976C90.0404 25.2 90.3684 25.312 90.7684 25.312C91.4084 25.312 91.9764 25.152 92.4724 24.832V27.736C91.8804 27.992 91.0804 28.12 90.0724 28.12C87.3044 28.12 85.9204 26.736 85.9204 23.968V18.4H84.1684V15.832H85.9204V12.952H89.4244V15.832H92.2564V18.4H89.4244ZM101.418 20.8V20.512C101.306 19.088 100.682 18.376 99.5463 18.376C98.9863 18.376 98.4903 18.584 98.0583 19C97.6263 19.4 97.3383 20 97.1943 20.8H101.418ZM103.938 24.376V27.304C103.106 27.848 101.834 28.12 100.122 28.12C98.1223 28.12 96.5623 27.544 95.4423 26.392C94.3383 25.224 93.7863 23.728 93.7863 21.904C93.7863 19.968 94.3223 18.456 95.3943 17.368C96.4823 16.264 97.8183 15.712 99.4023 15.712C101.034 15.712 102.322 16.192 103.266 17.152C104.21 18.096 104.682 19.512 104.682 21.4C104.682 21.768 104.618 22.4 104.49 23.296H97.3383C97.5783 23.968 97.9943 24.488 98.5863 24.856C99.1783 25.224 99.8903 25.408 100.722 25.408C101.954 25.408 103.026 25.064 103.938 24.376ZM110.423 15.832V18.088C110.647 17.384 111.015 16.824 111.527 16.408C112.055 15.976 112.663 15.76 113.351 15.76C113.735 15.76 114.039 15.792 114.263 15.856V19.168C113.879 18.992 113.439 18.904 112.943 18.904C112.191 18.904 111.583 19.184 111.119 19.744C110.655 20.288 110.423 21.016 110.423 21.928V28H106.919L106.943 15.832H110.423ZM115.706 28V15.832H119.21V28H115.706ZM116.018 13.744C115.618 13.344 115.418 12.864 115.418 12.304C115.418 11.744 115.618 11.264 116.018 10.864C116.418 10.464 116.898 10.264 117.458 10.264C118.018 10.264 118.498 10.464 118.898 10.864C119.298 11.264 119.498 11.744 119.498 12.304C119.498 12.864 119.298 13.344 118.898 13.744C118.498 14.144 118.018 14.344 117.458 14.344C116.898 14.344 116.418 14.144 116.018 13.744ZM127.355 28.192C125.451 28.192 123.979 27.624 122.939 26.488C121.899 25.336 121.379 23.864 121.379 22.072C121.379 20.2 121.923 18.664 123.011 17.464C124.099 16.248 125.547 15.64 127.355 15.64C129.243 15.64 130.707 16.224 131.747 17.392C132.787 18.56 133.307 20.048 133.307 21.856C133.307 23.696 132.779 25.216 131.723 26.416C130.683 27.6 129.227 28.192 127.355 28.192ZM127.331 18.4C126.563 18.4 125.987 18.728 125.603 19.384C125.219 20.04 125.027 20.888 125.027 21.928C125.027 22.968 125.219 23.824 125.603 24.496C126.003 25.152 126.595 25.48 127.379 25.48C128.147 25.48 128.715 25.16 129.083 24.52C129.467 23.864 129.659 23.016 129.659 21.976C129.659 19.592 128.883 18.4 127.331 18.4Z" fill="#121212"/>
<rect x="4" width="30" height="28" fill="#62ECF3"/>
<path d="M0 4H11L17 21L23 4H30V32H0V4Z" fill="#1CEBBC"/>
<path d="M6.87969 4H11.613L16.9917 20.6978L22.3705 4H27.1038L18.9115 28H15.0719L6.87969 4ZM4 4H8.89879L9.80904 22.3956V28H4V4ZM25.0847 4H30V28H24.1744V22.3956L25.0847 4Z" fill="white"/>
</svg>
